<svg width="48" height="48" viewBox="0 0 48 48" fill="none" xmlns="http://www.w3.org/2000/svg">
  <path d="M6 18C6 12 12 6 24 6C36 6 42 12 42 18V30C42 36 36 42 24 42C12 42 6 36 6 30V18Z" fill="#E8F4E8" stroke="#7BC47F" stroke-width="2" stroke-linejoin="round"/>
  <path d="M10 24H38" stroke="#7BC47F" stroke-width="2" stroke-linecap="round"/>
  <circle cx="16" cy="30" r="3" fill="#7BC47F" opacity="0.3"/>
  <circle cx="24" cy="29" r="3" fill="#7BC47F" opacity="0.3"/>
  <circle cx="32" cy="30" r="3" fill="#7BC47F" opacity="0.3"/>
  <path d="M16 10C16 10 13 14 16 17C19 14 16 10 16 10Z" fill="#6BA3E0" stroke="#6BA3E0" stroke-width="1.5" stroke-linecap="round"/>
  <path d="M28 8C28 8 26 11 26 13C26 15 28 15 32 15C34 15 35 13 35 13C35 11 33 8 33 8C33 8 31 10 30.5 10C30 10 28 8 28 8Z" fill="#8B7355" stroke="#6B5344" stroke-width="1.5" stroke-linejoin="round"/>
</svg>